<svg width="133" height="21" viewBox="0 0 133 21" fill="none" xmlns="http://www.w3.org/2000/svg">
<path d="M123.608 17.0867C123.436 16.82 123.288 16.5822 123.242 16.1351H119.748C119.767 17.0017 119.946 17.5154 120.273 18.1576L120.274 18.1595L120.275 18.1614C120.622 18.7846 121.084 19.3137 121.661 19.7479L121.663 19.7493L121.665 19.7505C122.261 20.1653 122.951 20.4752 123.734 20.6813L123.734 20.6815C124.539 20.8882 125.329 21 126.254 21C127.008 21 127.857 20.9067 128.641 20.7379C129.423 20.5694 130.131 20.2976 130.764 19.9216C131.418 19.5439 131.949 19.052 132.354 18.4463C132.763 17.8346 133 17.0039 133 16.1351C133 15.413 132.819 14.891 132.528 14.3949C132.256 13.9003 131.887 13.4906 131.421 13.1669C130.978 12.8455 130.468 12.5913 129.894 12.4035C129.326 12.2179 128.749 12.06 128.162 11.9301L128.162 11.9299C127.56 11.8007 126.976 11.6807 126.411 11.5699C125.853 11.4602 125.351 11.3327 124.906 11.1874C124.486 11.0257 124.143 10.8301 123.875 10.6022C123.64 10.3876 123.52 10.1075 123.52 9.75048C123.52 9.46177 123.606 9.24557 123.767 9.08793L123.769 9.08592L123.771 9.08382C123.945 8.89545 124.154 8.75894 124.398 8.67332L124.4 8.67257L124.403 8.67174C124.675 8.56492 124.956 8.49374 125.246 8.45811C125.563 8.42159 125.83 8.40365 126.049 8.40365C126.748 8.40365 127.36 8.52998 127.886 8.77906L127.887 8.77973C128.388 9.00924 128.744 9.60427 128.904 10.2973H132.372C132.272 9.50579 131.978 8.59312 131.675 8.10809C131.309 7.52243 130.923 7.05039 130.344 6.69048C129.786 6.33196 129.153 6.07803 128.445 5.92771C127.759 5.75951 127.035 5.67566 126.275 5.67566C125.609 5.67566 124.906 5.74099 124.167 5.87116L124.166 5.87126C123.44 6.00257 122.769 6.23727 122.155 6.57582C121.557 6.89789 121.055 7.33383 120.65 7.88256L120.649 7.88319C120.256 8.42386 120.063 9.09499 120.063 9.88879C120.063 10.6219 120.197 11.2504 120.471 11.7693L120.472 11.771C120.743 12.2654 121.103 12.6755 121.55 12.9998L121.552 13.0012C122.013 13.3215 122.522 13.5755 123.077 13.7635L123.078 13.7639C123.646 13.9496 124.233 14.1074 124.839 14.2374C125.422 14.3666 125.996 14.4867 126.561 14.5975C127.12 14.7071 127.611 14.8436 128.035 15.0066L128.038 15.0077L128.041 15.0086C128.479 15.152 128.829 15.3471 129.096 15.5912C129.353 15.8265 129.491 16.1282 129.509 16.5053C129.526 16.887 129.429 17.1873 129.228 17.4181L129.227 17.4187C129.035 17.6413 128.78 17.815 128.458 17.9378C128.13 18.063 127.773 18.153 127.388 18.2072C127.016 18.2436 126.683 18.2616 126.388 18.2616C125.542 18.2616 124.912 18.0914 124.312 17.7352C124.014 17.5578 123.78 17.3531 123.608 17.0867Z" fill="#EDEEF2"/>
<path d="M109.151 17.0867C108.979 16.82 108.831 16.5822 108.785 16.1351H105.292C105.311 17.0017 105.489 17.5154 105.816 18.1576L105.817 18.1595L105.818 18.1614C106.165 18.7846 106.627 19.3137 107.205 19.7479L107.206 19.7493L107.208 19.7505C107.804 20.1653 108.494 20.4752 109.277 20.6813L109.278 20.6815C110.083 20.8882 110.873 21 111.797 21C112.552 21 113.401 20.9067 114.185 20.7379C114.967 20.5694 115.675 20.2976 116.307 19.9216C116.962 19.5439 117.492 19.052 117.897 18.4463C118.307 17.8346 118.544 17.0039 118.544 16.1351C118.544 15.413 118.363 14.891 118.071 14.3949C117.799 13.9003 117.43 13.4906 116.965 13.1669C116.521 12.8455 116.012 12.5913 115.438 12.4035C114.87 12.2179 114.293 12.06 113.706 11.9301L113.705 11.9299C113.103 11.8007 112.52 11.6807 111.955 11.5699C111.396 11.4602 110.895 11.3327 110.45 11.1874C110.029 11.0257 109.687 10.8301 109.418 10.6022C109.183 10.3876 109.064 10.1075 109.064 9.75048C109.064 9.46177 109.149 9.24557 109.31 9.08793L109.312 9.08592L109.314 9.08382C109.489 8.89545 109.697 8.75894 109.942 8.67332L109.944 8.67257L109.946 8.67174C110.218 8.56492 110.499 8.49374 110.79 8.45811C111.106 8.42159 111.373 8.40365 111.593 8.40365C112.292 8.40365 112.903 8.52998 113.429 8.77906L113.43 8.77973C113.932 9.00924 114.288 9.60427 114.448 10.2973H117.915C117.816 9.50579 117.522 8.59312 117.218 8.10809C116.852 7.52243 116.467 7.05039 115.888 6.69048C115.33 6.33196 114.696 6.07803 113.989 5.92771C113.302 5.75951 112.579 5.67566 111.818 5.67566C111.152 5.67566 110.449 5.74099 109.71 5.87116L109.71 5.87126C108.983 6.00257 108.313 6.23727 107.699 6.57582C107.1 6.89789 106.598 7.33383 106.193 7.88256L106.193 7.88319C105.799 8.42386 105.606 9.09499 105.606 9.88879C105.606 10.6219 105.74 11.2504 106.015 11.7693L106.015 11.771C106.287 12.2654 106.646 12.6755 107.094 12.9998L107.096 13.0012C107.556 13.3215 108.065 13.5755 108.621 13.7635L108.622 13.7639C109.19 13.9496 109.777 14.1074 110.382 14.2374C110.966 14.3666 111.54 14.4867 112.105 14.5975C112.663 14.7071 113.154 14.8436 113.578 15.0066L113.581 15.0077L113.584 15.0086C114.023 15.152 114.373 15.3471 114.64 15.5912C114.896 15.8265 115.035 16.1282 115.052 16.5053C115.07 16.887 114.973 17.1873 114.771 17.4181L114.771 17.4187C114.579 17.6413 114.324 17.815 114.002 17.9378C113.673 18.063 113.317 18.153 112.931 18.2072C112.56 18.2436 112.226 18.2616 111.931 18.2616C111.086 18.2616 110.455 18.0914 109.856 17.7352C109.557 17.5578 109.323 17.3531 109.151 17.0867Z" fill="#EDEEF2"/>
<path d="M96.8238 21C100.478 21 103.029 18.6534 103.683 16.0962H100.232C99.2519 18.3948 96.8238 18.3948 96.8238 18.3948C94.4354 18.3948 92.9058 16.8049 92.8752 14.286H103.796L103.846 13.1846C103.846 8.0222 100.519 5.67566 96.6605 5.67566C92.1696 5.67566 89.1484 8.95123 89.1484 13.4911C89.1484 18.1075 92.0981 21 96.8238 21ZM92.8854 12.1923C92.9976 10.3151 94.4776 8.73475 96.6822 8.73475C98.8052 8.73475 100.234 10.1906 100.255 12.1923H92.8854Z" fill="#EDEEF2"/>
<path d="M78.3061 12C78.3061 9.73614 79.9051 8.71617 81.4384 8.71617C83.1058 8.71617 84.3297 10.1134 84.3297 12V20.7567H87.7029V11.2951C87.7029 7.72523 85.5371 5.67563 82.6431 5.67563C80.439 5.67563 78.9769 6.93055 78.3061 8.59455V5.91887H74.933V20.7567H78.3061V12Z" fill="#EDEEF2"/>
<path d="M73.6077 2.63519C73.6077 3.77708 72.6908 4.70276 71.5597 4.70276C70.4286 4.70276 69.5117 3.77708 69.5117 2.63519C69.5117 1.49331 70.4286 0.567627 71.5597 0.567627C72.6908 0.567627 73.6077 1.49331 73.6077 2.63519Z" fill="#EDEEF2"/>
<path d="M69.873 20.7568H73.2462V5.91895H69.873V20.7568Z" fill="#EDEEF2"/>
<path d="M58.7944 17.0867C58.6226 16.82 58.4741 16.5822 58.4285 16.1351H54.9348C54.954 17.0017 55.1322 17.5154 55.4595 18.1576L55.4605 18.1595L55.4615 18.1614C55.808 18.7846 56.2704 19.3137 56.8477 19.7479L56.8495 19.7493L56.8513 19.7505C57.4471 20.1653 58.1373 20.4752 58.9203 20.6813L58.921 20.6815C59.7256 20.8882 60.5159 21 61.4403 21C62.1947 21 63.0439 20.9067 63.8276 20.7379C64.61 20.5694 65.3179 20.2976 65.9504 19.9216C66.6048 19.5439 67.1354 19.052 67.5406 18.4463C67.9497 17.8346 68.1866 17.0039 68.1866 16.1351C68.1866 15.413 68.0058 14.891 67.7143 14.3949C67.4425 13.9003 67.0734 13.4906 66.6079 13.1669C66.1645 12.8455 65.655 12.5913 65.0807 12.4035C64.5129 12.2179 63.9357 12.06 63.349 11.9301L63.3482 11.9299C62.746 11.8007 62.1626 11.6807 61.5979 11.5699C61.0392 11.4602 60.5376 11.3327 60.0928 11.1874C59.6725 11.0257 59.3296 10.8301 59.0612 10.6022C58.8264 10.3876 58.7068 10.1075 58.7068 9.75048C58.7068 9.46177 58.7924 9.24557 58.9531 9.08793L58.9552 9.08592L58.9571 9.08382C59.1317 8.89545 59.3404 8.75894 59.5848 8.67332L59.5869 8.67257L59.589 8.67174C59.8612 8.56492 60.1424 8.49374 60.4326 8.45811C60.7491 8.42159 61.0165 8.40365 61.2357 8.40365C61.935 8.40365 62.5461 8.52998 63.072 8.77906L63.0735 8.77973C63.5748 9.00924 63.9306 9.60427 64.0906 10.2973H67.5585C67.4589 9.50579 67.1648 8.59312 66.8615 8.10809C66.4952 7.52243 66.11 7.05039 65.531 6.69048C64.973 6.33196 64.3395 6.07803 63.6318 5.92771C62.9453 5.75951 62.2217 5.67566 61.4613 5.67566C60.7953 5.67566 60.0925 5.74099 59.3533 5.87116L59.3527 5.87126C58.6261 6.00257 57.9556 6.23727 57.342 6.57582C56.7435 6.89789 56.2413 7.33383 55.8363 7.88256L55.8359 7.88319C55.4422 8.42386 55.2493 9.09499 55.2493 9.88879C55.2493 10.6219 55.3834 11.2504 55.6577 11.7693L55.6586 11.771C55.9299 12.2654 56.2894 12.6755 56.7366 12.9998L56.7386 13.0012C57.1995 13.3215 57.7081 13.5755 58.2636 13.7635L58.2648 13.7639C58.8329 13.9496 59.4196 14.1074 60.025 14.2374C60.6086 14.3666 61.1828 14.4867 61.7476 14.5975C62.3061 14.7071 62.7972 14.8436 63.2216 15.0066L63.2245 15.0077L63.2274 15.0086C63.6658 15.152 64.016 15.3471 64.2826 15.5912C64.5395 15.8265 64.6778 16.1282 64.6953 16.5053C64.7129 16.887 64.6159 17.1873 64.4142 17.4181L64.4137 17.4187C64.2217 17.6413 63.9668 17.815 63.6448 17.9378C63.3166 18.063 62.96 18.153 62.5745 18.2072C62.2026 18.2436 61.8692 18.2616 61.5741 18.2616C60.7288 18.2616 60.0981 18.0914 59.499 17.7352C59.2005 17.5578 58.9661 17.3531 58.7944 17.0867Z" fill="#EDEEF2"/>
<path d="M50.116 14.6757C50.116 16.9395 48.517 17.9595 46.9837 17.9595C45.3163 17.9595 44.0924 16.5622 44.0924 14.6757V5.91895H40.7192V15.3806C40.7192 18.9504 42.885 21 45.779 21C47.9831 21 49.4452 19.7451 50.116 18.0811V20.7568H53.4892V5.91895H50.116V14.6757Z" fill="#EDEEF2"/>
<path d="M36.1414 11.3919C37.1201 11.741 37.9217 12.3107 38.4525 13.0755C38.9999 13.8403 39.2736 14.6843 39.2736 15.6486C39.2736 17.2614 38.7428 18.5372 37.6812 19.435C36.6361 20.3162 35.0163 20.7568 33.0091 20.7568H24.3352V3H32.7682C34.626 3 36.1053 3.42397 37.084 4.2719C38.0627 5.11984 38.5508 6.25828 38.5508 7.62162C38.5508 9.36737 37.7172 10.5938 36.1414 11.3919ZM32.5803 5.76826H27.6943V10.407H32.5803C33.4263 10.407 34.0732 10.1991 34.5211 9.78348C34.9856 9.3512 35.2178 8.76097 35.2178 8.01279C35.2178 7.31449 34.9856 6.76583 34.5211 6.3668C34.0567 5.96777 33.4097 5.76826 32.5803 5.76826ZM27.6943 17.9636H32.9287C33.8742 17.9636 34.5958 17.7557 35.0934 17.3401C35.5911 16.9078 35.8399 16.3009 35.8399 15.5195C35.8399 13.8735 34.8695 13.0505 32.9287 13.0505H27.6943V17.9636Z" fill="#EDEEF2"/>
<path d="M17.5889 3H13.2519L5.78271 11.8784L13.2519 20.7568H17.5889L10.1477 11.8784L17.5889 3Z" fill="#FF1919"/>
<path d="M3.37319 3H0V20.7568H3.37319V3Z" fill="#FF1919"/>
</svg>
